HIERARCHY
ROOT Hips
{
	OFFSET 0.000000 0.000000 0.000000
	CHANNELS 6 Xposition Yposition Zposition Zrotation Yrotation Xrotation 
	JOINT LeftUpLeg_virtual
	{
		OFFSET 0.000000 0.000000 0.000000
		CHANNELS 3 Zrotation Yrotation Xrotation
		JOINT LeftUpLeg
		{
			OFFSET 10.205400 -3.823500 0.155100
			CHANNELS 3 Zrotation Yrotation Xrotation
			JOINT LeftLeg
			{
				OFFSET 0.708757 -12.982077 0.567790
				CHANNELS 3 Zrotation Yrotation Xrotation
				JOINT LeftFoot
				{
					OFFSET -0.708756 -10.717838 -2.184338
					CHANNELS 3 Zrotation Yrotation Xrotation
					JOINT LeftToeBase
					{
						OFFSET 0.108149 -7.191104 7.560241
						CHANNELS 3 Zrotation Yrotation Xrotation
						End Site
						{
							OFFSET 0.000000 0.000000 0.000000
						}
					}
				}
			}
		}
	}
	JOINT RightUpLeg_virtual
	{
		OFFSET 0.000000 0.000000 0.000000
		CHANNELS 3 Zrotation Yrotation Xrotation
		JOINT RightUpLeg
		{
			OFFSET -10.205400 -3.823500 0.005500
			CHANNELS 3 Zrotation Yrotation Xrotation
			JOINT RightLeg
			{
				OFFSET -0.708756 -12.982134 0.610632
				CHANNELS 3 Zrotation Yrotation Xrotation
				JOINT RightFoot
				{
					OFFSET 0.708754 -10.717769 -1.945823
					CHANNELS 3 Zrotation Yrotation Xrotation
					JOINT RightToeBase
					{
						OFFSET -0.108140 -7.191069 7.372968
						CHANNELS 3 Zrotation Yrotation Xrotation
						End Site
						{
							OFFSET 0.000000 0.000000 0.000000
						}
					}
				}
			}
		}
	}
	JOINT Spine_virtual
	{
		OFFSET 0.000000 0.000000 0.000000
		CHANNELS 3 Zrotation Yrotation Xrotation
		JOINT Spine
		{
			OFFSET 0.000000 6.876099 0.125700
			CHANNELS 3 Zrotation Yrotation Xrotation
			JOINT Spine1
			{
				OFFSET 0.000000 8.022060 0.146608
				CHANNELS 3 Zrotation Yrotation Xrotation
				JOINT Spine2
				{
					OFFSET 0.000000 9.168068 0.167552
					CHANNELS 3 Zrotation Yrotation Xrotation
					JOINT Neck_virtual
					{
						OFFSET 0.000000 0.000000 0.000000
						CHANNELS 3 Zrotation Yrotation Xrotation
						JOINT Neck
						{
							OFFSET 0.000000 10.314075 0.188496
							CHANNELS 3 Zrotation Yrotation Xrotation
							JOINT Head
							{
								OFFSET 0.000000 7.643700 -2.377400
								CHANNELS 3 Zrotation Yrotation Xrotation
								End Site
								{
									OFFSET 0.000000 0.000000 0.000000
								}
							}
						}
					}
					JOINT LeftShoulder_virtual
					{
						OFFSET 0.000000 0.000000 0.000000
						CHANNELS 3 Zrotation Yrotation Xrotation
						JOINT LeftShoulder
						{
							OFFSET 4.392200 8.824978 0.174984
							CHANNELS 3 Zrotation Yrotation Xrotation
							JOINT LeftArm
							{
								OFFSET 8.771219 -2.981674 -0.026999
								CHANNELS 3 Zrotation Yrotation Xrotation
								JOINT LeftForeArm
								{
									OFFSET 8.512804 0.000000 -0.000000
									CHANNELS 3 Zrotation Yrotation Xrotation
									JOINT LeftHand
									{
										OFFSET 18.484802 0.000000 -0.000000
										CHANNELS 3 Zrotation Yrotation Xrotation
										End Site
										{
											OFFSET 0.000000 0.000000 0.000000
										}
									}
								}
							}
						}
					}
					JOINT RightShoulder_virtual
					{
						OFFSET 0.000000 0.000000 0.000000
						CHANNELS 3 Zrotation Yrotation Xrotation
						JOINT RightShoulder
						{
							OFFSET -4.392200 8.824993 0.141379
							CHANNELS 3 Zrotation Yrotation Xrotation
							JOINT RightArm
							{
								OFFSET -8.771282 -2.981682 -0.094208
								CHANNELS 3 Zrotation Yrotation Xrotation
								JOINT RightForeArm
								{
									OFFSET -8.494598 0.000000 0.000000
									CHANNELS 3 Zrotation Yrotation Xrotation
									JOINT RightHand
									{
										OFFSET -18.483803 0.000000 0.000001
										CHANNELS 3 Zrotation Yrotation Xrotation
										End Site
										{
											OFFSET 0.000000 0.000000 0.000000
										}
									}
								}
							}
						}
					}
				}
			}
		}
	}
}
MOTION
Frames: 4
Frame Time: 0.033333
-9.000260 34.786091 65.708336 -179.806123 7.922413 179.538557 -2.304513 -3.395060 10.672182 -10.344136 -2.870055 -31.086377 15.901244 8.029184 20.873567 -7.547862 0.182773 4.396925 0.000000 0.000000 0.000000 3.514564 -2.515763 9.096588 2.018022 10.094126 -27.601211 -7.191563 -0.420534 22.033145 0.106343 3.597255 5.199852 0.000000 0.000000 0.000000 2.126274 -0.646329 -0.841111 -1.313008 -0.160214 -8.164292 -0.419095 -2.340124 11.886162 -0.008867 -0.092526 -0.044816 -0.761534 -0.069270 14.669768 1.409631 -3.496096 15.069590 0.000000 0.000000 0.000000 0.543357 0.616754 11.478742 -18.299501 -12.959178 3.715596 -47.906540 16.339769 11.258597 -3.786158 -28.196848 5.612967 0.000000 0.000000 0.000000 -2.858872 1.632261 11.095000 25.575356 6.893385 5.397808 41.357110 -14.689649 13.245436 -5.784858 28.111638 -4.077650 0.000000 0.000000 0.000000 
-9.016222 34.780518 65.736076 -179.678098 7.794608 179.364470 -2.414277 -3.448153 10.323967 -10.416628 -3.024431 -31.395128 15.542328 7.613419 20.508977 -7.923839 -0.099784 4.181274 0.000000 0.000000 0.000000 3.609506 -2.349165 9.202681 2.101185 10.029189 -27.344859 -7.522250 -0.915117 22.508173 -0.254885 3.291258 5.630131 0.000000 0.000000 0.000000 2.237900 -0.644253 -0.731864 -1.198352 -0.152214 -8.053311 -0.502107 -2.326096 11.969640 0.015519 -0.081205 -0.157676 -0.778048 -0.100500 14.520501 1.431262 -3.512536 14.931446 0.000000 0.000000 0.000000 0.532556 0.542057 11.484616 -18.339637 -13.059083 3.769471 -47.950636 16.296131 11.337810 -3.773181 -27.789417 5.669045 0.000000 0.000000 0.000000 -2.943808 1.645890 11.132103 25.591725 6.896816 5.420376 41.448573 -14.759153 13.428325 -5.624902 27.978661 -3.926219 0.000000 0.000000 0.000000 
-9.031075 34.776329 65.755524 -179.759282 7.753757 179.364579 -2.439415 -3.472303 10.197156 -10.534360 -2.900550 -31.361100 15.540306 7.592445 20.572451 -8.017262 -0.018398 4.270948 0.000000 0.000000 0.000000 3.561455 -2.319208 9.063120 2.110825 10.197097 -27.272378 -7.620828 -0.773478 22.603787 -0.298098 3.252041 5.585112 0.000000 0.000000 0.000000 2.197293 -0.624673 -0.757114 -1.220370 -0.174188 -8.086804 -0.481263 -2.359100 11.970388 0.008501 -0.095188 -0.202506 -0.806806 -0.131735 14.608410 1.446487 -3.541319 15.031049 0.000000 0.000000 0.000000 0.457369 0.476139 11.554279 -18.358336 -12.961233 3.737253 -47.847982 16.268281 11.460766 -3.713155 -27.418630 5.676144 0.000000 0.000000 0.000000 -3.012035 1.624055 11.237142 25.632863 6.899487 5.426972 41.468565 -14.696294 13.604863 -5.669656 27.855895 -3.991136 0.000000 0.000000 0.000000 
-9.057084 34.773613 65.764664 -179.745963 7.745305 179.340974 -2.371252 -3.478534 10.092971 -10.673151 -2.693455 -31.291754 15.544670 7.588804 20.691086 -8.138948 0.070767 4.316661 0.000000 0.000000 0.000000 3.612474 -2.305289 8.924780 2.060343 10.311816 -27.157064 -7.710198 -0.795042 22.691509 -0.269638 3.261483 5.582618 0.000000 0.000000 0.000000 2.228756 -0.668164 -0.745931 -1.171659 -0.207947 -8.161691 -0.568887 -2.403004 11.899639 -0.032740 -0.152942 -0.095872 -0.868751 -0.117677 14.702978 1.433309 -3.588972 15.267534 0.000000 0.000000 0.000000 0.380143 0.570537 11.491777 -18.369082 -12.817703 3.766474 -47.779636 16.281540 11.598616 -3.651378 -27.207420 5.682004 0.000000 0.000000 0.000000 -3.063521 1.690109 11.259390 25.681093 6.998342 5.484766 41.507736 -14.548964 13.769495 -5.690443 27.747309 -4.004236 0.000000 0.000000 0.000000 
